<svg width="20" height="14" viewBox="0 0 20 14" fill="none" xmlns="http://www.w3.org/2000/svg">
<path d="M6.99051 1.05825C7.14425 0.899068 7.32816 0.772098 7.5315 0.68475C7.73484 0.597402 7.95354 0.551424 8.17484 0.549501C8.39614 0.547578 8.6156 0.589748 8.82043 0.673549C9.02526 0.757351 9.21134 0.881106 9.36783 1.03759C9.52432 1.19408 9.64807 1.38017 9.73188 1.585C9.81568 1.78982 9.85785 2.00929 9.85592 2.23059C9.854 2.45189 9.80802 2.67059 9.72068 2.87393C9.63333 3.07727 9.50636 3.26117 9.34717 3.41492L7.19217 5.56992H17.478C17.92 5.56992 18.344 5.74551 18.6565 6.05807C18.9691 6.37064 19.1447 6.79456 19.1447 7.23659C19.1447 7.67861 18.9691 8.10254 18.6565 8.4151C18.344 8.72766 17.92 8.90325 17.478 8.90325H7.19217L9.34717 11.0583C9.50636 11.212 9.63333 11.3959 9.72068 11.5992C9.80802 11.8026 9.854 12.0213 9.85592 12.2426C9.85785 12.4639 9.81568 12.6833 9.73188 12.8882C9.64807 13.093 9.52432 13.2791 9.36783 13.4356C9.21134 13.5921 9.02526 13.7158 8.82043 13.7996C8.6156 13.8834 8.39614 13.9256 8.17484 13.9237C7.95354 13.9217 7.73484 13.8758 7.5315 13.7884C7.32816 13.7011 7.14425 13.5741 6.99051 13.4149L0.81134 7.23659L6.99051 1.05825Z" fill="#111111"/>
</svg>
