<svg width="25" height="25" viewBox="0 0 25 25" fill="none" xmlns="http://www.w3.org/2000/svg">
<g clip-path="url(#clip0_1_157)">
<path d="M0.978027 12.2366C0.978027 17.3596 4.18903 21.7336 8.70803 23.4546C8.59803 22.5176 8.48103 20.9726 8.73303 19.8886C8.95003 18.9566 10.134 13.9506 10.134 13.9506C10.134 13.9506 9.77703 13.2356 9.77703 12.1766C9.77703 10.5166 10.739 9.27657 11.938 9.27657C12.958 9.27657 13.45 10.0416 13.45 10.9586C13.45 11.9836 12.797 13.5156 12.46 14.9366C12.179 16.1256 13.057 17.0956 14.229 17.0956C16.352 17.0956 17.985 14.8566 17.985 11.6246C17.985 8.76357 15.929 6.76457 12.994 6.76457C9.59603 6.76457 7.60103 9.31357 7.60103 11.9486C7.60103 12.9756 7.99603 14.0756 8.49003 14.6746C8.53214 14.7198 8.5619 14.7751 8.57644 14.8352C8.59098 14.8953 8.5898 14.9581 8.57303 15.0176C8.48203 15.3956 8.28003 16.2066 8.24103 16.3726C8.18803 16.5906 8.06803 16.6376 7.84103 16.5316C6.34903 15.8376 5.41703 13.6566 5.41703 11.9046C5.41703 8.13557 8.15403 4.67557 13.309 4.67557C17.453 4.67557 20.674 7.62857 20.674 11.5746C20.674 15.6916 18.079 19.0056 14.475 19.0056C13.264 19.0056 12.127 18.3756 11.737 17.6326C11.737 17.6326 11.138 19.9146 10.993 20.4726C10.711 21.5566 9.92903 22.9286 9.44403 23.7076C10.562 24.0516 11.748 24.2366 12.978 24.2366C19.605 24.2366 24.978 18.8636 24.978 12.2366C24.978 5.60957 19.605 0.236572 12.978 0.236572C6.35103 0.236572 0.978027 5.60957 0.978027 12.2366Z" fill="#E60023"/>
</g>
<defs>
<clipPath id="clip0_1_157">
<rect width="24" height="24" fill="white" transform="translate(0.978027 0.236572)"/>
</clipPath>
</defs>
</svg>
