<svg width="13" height="13" viewBox="0 0 13 13" fill="none" xmlns="http://www.w3.org/2000/svg">
<g clip-path="url(#clip0_1_93)">
<path d="M8.58105 0.973145H5.33105C5.09899 0.973145 4.87643 1.06533 4.71234 1.22943C4.54824 1.39352 4.45605 1.61608 4.45605 1.84814C4.45605 2.08021 4.54824 2.30277 4.71234 2.46686C4.87643 2.63096 5.09899 2.72314 5.33105 2.72314H8.58105C10.0311 2.72314 11.2061 3.89814 11.2061 5.34814V8.59814C11.2061 8.83021 11.2982 9.05277 11.4623 9.21686C11.6264 9.38096 11.849 9.47314 12.0811 9.47314C12.3131 9.47314 12.5357 9.38096 12.6998 9.21686C12.8639 9.05277 12.9561 8.83021 12.9561 8.59814V5.34814C12.9547 4.18823 12.4934 3.0762 11.6732 2.25601C10.853 1.43583 9.74097 0.974468 8.58105 0.973145ZM8.20605 4.22314H2.45605C2.05823 4.22314 1.6767 4.38118 1.39539 4.66248C1.11409 4.94379 0.956055 5.32532 0.956055 5.72314L0.956055 11.4731C0.956055 11.871 1.11409 12.2525 1.39539 12.5338C1.6767 12.8151 2.05823 12.9731 2.45605 12.9731H8.20605C8.60388 12.9731 8.98541 12.8151 9.26672 12.5338C9.54802 12.2525 9.70605 11.871 9.70605 11.4731V5.72314C9.70605 5.32532 9.54802 4.94379 9.26672 4.66248C8.98541 4.38118 8.60388 4.22314 8.20605 4.22314Z" fill="#111111"/>
</g>
<defs>
<clipPath id="clip0_1_93">
<rect width="12" height="12" fill="white" transform="translate(0.956055 0.973145)"/>
</clipPath>
</defs>
</svg>
