<svg width="45" height="45" viewBox="0 0 45 45" fill="none" xmlns="http://www.w3.org/2000/svg">
<rect x="0.478027" y="0.236572" width="44" height="44" rx="22" fill="white" fill-opacity="0.9"/>
<g clip-path="url(#clip0_1_25)">
<path d="M28.3114 13.0699H25.8114V14.7366H28.3114C29.2305 14.7366 29.978 15.4841 29.978 16.4032V18.9032H31.6447V16.4032C31.6447 14.5649 30.1497 13.0699 28.3114 13.0699ZM29.978 28.0699C29.978 28.9891 29.2305 29.7365 28.3114 29.7365H25.8114V31.4032H28.3114C30.1497 31.4032 31.6447 29.9082 31.6447 28.0699V25.5699H29.978V28.0699ZM14.978 28.0699V25.5699H13.3114V28.0699C13.3114 29.9082 14.8064 31.4032 16.6447 31.4032H19.1447V29.7365H16.6447C15.7255 29.7365 14.978 28.9891 14.978 28.0699ZM14.978 16.4032C14.978 15.4841 15.7255 14.7366 16.6447 14.7366H19.1447V13.0699H16.6447C14.8064 13.0699 13.3114 14.5649 13.3114 16.4032V18.9032H14.978V16.4032ZM19.978 21.8199C19.978 20.6716 20.913 19.7366 22.0614 19.7366C23.2097 19.7366 24.1447 20.6716 24.1447 21.8199C24.1447 22.9682 23.2097 23.9032 22.0614 23.9032C20.913 23.9032 19.978 22.9682 19.978 21.8199ZM26.228 27.2366C26.475 27.2359 26.7162 27.1622 26.9214 27.0247C27.1265 26.8872 27.2864 26.6921 27.3809 26.464C27.4755 26.2358 27.5004 25.9848 27.4526 25.7425C27.4047 25.5002 27.2863 25.2775 27.1122 25.1024L25.4355 23.4266C25.68 22.9261 25.8085 22.3769 25.8114 21.8199C25.8114 19.7524 24.1289 18.0699 22.0614 18.0699C19.9939 18.0699 18.3114 19.7524 18.3114 21.8199C18.3114 23.8874 19.9939 25.5699 22.0614 25.5699C22.6389 25.5699 23.1789 25.4282 23.668 25.1941L25.3439 26.8707C25.588 27.1149 25.908 27.2366 26.228 27.2366Z" fill="#111111"/>
</g>
<defs>
<clipPath id="clip0_1_25">
<rect width="20" height="20" fill="white" transform="translate(12.478 12.2366)"/>
</clipPath>
</defs>
</svg>
