<svg width="25" height="25" viewBox="0 0 25 25" fill="none" xmlns="http://www.w3.org/2000/svg">
<path d="M18.978 12.7366C18.781 12.7365 18.5859 12.6976 18.4038 12.6222C18.2218 12.5467 18.0564 12.4361 17.9172 12.2967C17.7779 12.1574 17.6674 11.9919 17.5921 11.8098C17.5167 11.6278 17.478 11.4326 17.478 11.2356C17.4781 11.0385 17.517 10.8434 17.5924 10.6614C17.6679 10.4794 17.7785 10.314 17.9179 10.1747C18.0572 10.0354 18.2227 9.92495 18.4048 9.8496C18.5868 9.77425 18.782 9.73551 18.979 9.73557C19.377 9.7357 19.7586 9.89392 20.0399 10.1754C20.3212 10.4569 20.4792 10.8386 20.479 11.2366C20.4789 11.6345 20.3207 12.0161 20.0392 12.2974C19.7577 12.5787 19.376 12.7367 18.978 12.7366ZM12.978 12.7366C12.5801 12.7364 12.1985 12.5782 11.9172 12.2967C11.6359 12.0152 11.4779 11.6335 11.478 11.2356C11.4782 10.8376 11.6364 10.456 11.9179 10.1747C12.1994 9.8934 12.5811 9.73544 12.979 9.73557C13.377 9.7357 13.7586 9.89392 14.0399 10.1754C14.3212 10.4569 14.4792 10.8386 14.479 11.2366C14.4789 11.6345 14.3207 12.0161 14.0392 12.2974C13.7577 12.5787 13.376 12.7367 12.978 12.7366ZM6.97803 12.7366C6.58007 12.7364 6.19846 12.5782 5.91716 12.2967C5.63586 12.0152 5.47789 11.6335 5.47803 11.2356C5.47816 10.8376 5.63637 10.456 5.91787 10.1747C6.19936 9.8934 6.58107 9.73544 6.97903 9.73557C7.37698 9.7357 7.75859 9.89392 8.03989 10.1754C8.3212 10.4569 8.47916 10.8386 8.47903 11.2366C8.47889 11.6345 8.32068 12.0161 8.03919 12.2974C7.7577 12.5787 7.37598 12.7367 6.97803 12.7366ZM12.978 0.236572C6.90303 0.236572 1.97803 5.16157 1.97803 11.2366C1.97803 13.8896 2.91803 16.3226 4.48203 18.2226L2.97803 24.2366L8.31403 21.1876C9.77224 21.8771 11.365 22.2353 12.978 22.2366C19.053 22.2366 23.978 17.3116 23.978 11.2366C23.978 5.16157 19.053 0.236572 12.978 0.236572Z" fill="#5F5F5F"/>
</svg>
