<svg width="21" height="21" viewBox="0 0 21 21" fill="none" xmlns="http://www.w3.org/2000/svg">
<path d="M10.478 7.73657C9.09469 7.73657 7.97803 8.85324 7.97803 10.2366C7.97803 11.6199 9.09469 12.7366 10.478 12.7366C11.8614 12.7366 12.978 11.6199 12.978 10.2366C12.978 8.85324 11.8614 7.73657 10.478 7.73657ZM2.97803 7.73657C4.36136 7.73657 5.47803 8.85324 5.47803 10.2366C5.47803 11.6199 4.36136 12.7366 2.97803 12.7366C1.59469 12.7366 0.478027 11.6199 0.478027 10.2366C0.478027 8.85324 1.59469 7.73657 2.97803 7.73657ZM17.978 7.73657C19.3614 7.73657 20.478 8.85324 20.478 10.2366C20.478 11.6199 19.3614 12.7366 17.978 12.7366C16.5947 12.7366 15.478 11.6199 15.478 10.2366C15.478 8.85324 16.5947 7.73657 17.978 7.73657Z" fill="#111111"/>
</svg>
