<svg width="18" height="25" viewBox="0 0 18 25" fill="none" xmlns="http://www.w3.org/2000/svg">
<path d="M11.318 21.4366C11.318 23.0066 10.128 24.2366 8.53803 24.2366C6.95803 24.2366 5.76803 23.0066 5.76803 21.4366C5.76803 19.8666 6.95803 18.6366 8.53803 18.6366C10.128 18.6366 11.318 19.8666 11.318 21.4366ZM8.78803 10.5566C10.198 9.32657 12.088 8.50657 12.088 6.68657C12.088 5.23657 10.848 4.32657 9.13803 4.32657C7.01803 4.32657 5.61803 5.80657 5.58803 7.75657H0.728027C0.858027 3.53657 3.93803 0.236572 9.31803 0.236572C14.178 0.236572 17.228 2.75657 17.228 6.55657C17.228 8.91657 16.138 10.3666 14.928 11.3366C13.248 12.6666 12.088 13.2266 11.438 13.9466C10.938 14.5166 10.818 14.9866 10.788 15.8966H6.42803C6.42803 13.2566 7.07803 11.9966 8.78803 10.5566Z" fill="#111111"/>
</svg>
