<svg width="17" height="17" viewBox="0 0 17 17" fill="none" xmlns="http://www.w3.org/2000/svg">
<g clip-path="url(#clip0_1_169)">
<path d="M7.45719 10.9032C5.25053 10.9032 3.45719 9.10991 3.45719 6.90324C3.45719 4.69657 5.25053 2.90324 7.45719 2.90324C9.66386 2.90324 11.4572 4.69657 11.4572 6.90324C11.4572 9.10991 9.66386 10.9032 7.45719 10.9032ZM16.2039 12.8232L13.3639 9.98324C13.8653 9.03419 14.1263 7.97662 14.1239 6.90324C14.1239 3.22324 11.1372 0.236572 7.45719 0.236572C3.77719 0.236572 0.790527 3.22324 0.790527 6.90324C0.790527 10.5832 3.77719 13.5699 7.45719 13.5699C8.57053 13.5699 9.61719 13.2966 10.5372 12.8099L13.3772 15.6499C13.7522 16.0244 14.2605 16.2348 14.7905 16.2348C15.3205 16.2348 15.8289 16.0244 16.2039 15.6499C16.5784 15.2749 16.7888 14.7666 16.7888 14.2366C16.7888 13.7066 16.5784 13.1982 16.2039 12.8232Z" fill="#5F5F5F"/>
</g>
<defs>
<clipPath id="clip0_1_169">
<rect width="16" height="16" fill="white" transform="translate(0.790527 0.236572)"/>
</clipPath>
</defs>
</svg>
