<svg width="21" height="21" viewBox="0 0 21 21" fill="none" xmlns="http://www.w3.org/2000/svg">
<g clip-path="url(#clip0_1_42)">
<path d="M17.978 6.2699L14.603 9.6449L13.7197 8.76157L14.278 8.20324C14.4008 8.0888 14.4993 7.9508 14.5677 7.79747C14.636 7.64413 14.6727 7.47861 14.6757 7.31077C14.6786 7.14294 14.6478 6.97622 14.5849 6.82057C14.522 6.66493 14.4285 6.52354 14.3098 6.40484C14.1911 6.28614 14.0497 6.19257 13.894 6.1297C13.7384 6.06683 13.5717 6.03596 13.4038 6.03892C13.236 6.04188 13.0705 6.07861 12.9171 6.14693C12.7638 6.21525 12.6258 6.31376 12.5114 6.43657L11.953 6.9949L11.0697 6.11157L14.4447 2.73657L17.978 6.2699ZM9.89469 14.3532L6.50302 17.7366L2.97802 14.2032L6.35302 10.8282L7.23636 11.7116L6.67802 12.2699C6.45722 12.5069 6.33702 12.8203 6.34273 13.1441C6.34845 13.4679 6.47963 13.7769 6.70866 14.0059C6.93768 14.235 7.24665 14.3661 7.57049 14.3719C7.89432 14.3776 8.20773 14.2574 8.44469 14.0366L9.00302 13.4782L9.89469 14.3532ZM12.6697 0.978236L9.29469 4.35324C8.82652 4.82199 8.56356 5.4574 8.56356 6.1199C8.56356 6.7824 8.82652 7.41782 9.29469 7.88657L10.178 8.7699L8.99469 9.95324L8.11136 9.0699C7.64261 8.60174 7.00719 8.33877 6.34469 8.33877C5.68219 8.33877 5.04678 8.60174 4.57802 9.0699L1.21136 12.4366C0.74319 12.9053 0.480225 13.5407 0.480225 14.2032C0.480225 14.8657 0.74319 15.5012 1.21136 15.9699L4.74469 19.5032C5.21344 19.9714 5.84886 20.2344 6.51136 20.2344C7.17386 20.2344 7.80927 19.9714 8.27802 19.5032L11.653 16.1282C12.1212 15.6595 12.3842 15.0241 12.3842 14.3616C12.3842 13.6991 12.1212 13.0637 11.653 12.5949L10.7697 11.7116L11.953 10.5282L12.8364 11.4116C13.3051 11.8797 13.9405 12.1427 14.603 12.1427C15.2655 12.1427 15.9009 11.8797 16.3697 11.4116L19.7447 8.03657C20.2129 7.56782 20.4758 6.9324 20.4758 6.2699C20.4758 5.6074 20.2129 4.97199 19.7447 4.50324L16.2114 0.969903C15.7426 0.501735 15.1072 0.23877 14.4447 0.23877C13.7822 0.23877 13.1468 0.501735 12.678 0.969903L12.6697 0.978236Z" fill="#111111"/>
</g>
<defs>
<clipPath id="clip0_1_42">
<rect width="20" height="20" fill="white" transform="translate(0.478027 0.236572)"/>
</clipPath>
</defs>
</svg>
