<svg width="21" height="21" viewBox="0 0 21 21" fill="none" xmlns="http://www.w3.org/2000/svg">
<g clip-path="url(#clip0_1_38)">
<path d="M17.978 11.9032C18.8947 11.9032 19.6447 12.6532 19.6447 13.5699V18.5699C19.6447 19.4866 18.8947 20.2366 17.978 20.2366H2.97803C2.06136 20.2366 1.31136 19.4866 1.31136 18.5699V13.5699C1.31136 12.6532 2.06136 11.9032 2.97803 11.9032C3.8947 11.9032 4.6447 12.6532 4.6447 13.5699V16.9032H16.3114V13.5699C16.3114 12.6532 17.0614 11.9032 17.978 11.9032ZM7.82803 7.60324C7.17803 8.25324 6.1197 8.26157 5.4697 7.60324C4.8197 6.95324 4.81136 5.90324 5.46136 5.25324L10.4697 0.236572L15.4864 5.24491C16.1364 5.89491 16.1447 6.95324 15.4947 7.60324C14.8447 8.25324 13.7864 8.26157 13.1364 7.60324L12.1364 6.61157V11.7616C12.1364 12.2036 11.9608 12.6275 11.6482 12.9401C11.3356 13.2526 10.9117 13.4282 10.4697 13.4282C10.0277 13.4282 9.60375 13.2526 9.29118 12.9401C8.97862 12.6275 8.80303 12.2036 8.80303 11.7616V6.61991L7.82803 7.60324Z" fill="#111111"/>
</g>
<defs>
<clipPath id="clip0_1_38">
<rect width="20" height="20" fill="white" transform="translate(0.478027 0.236572)"/>
</clipPath>
</defs>
</svg>
